# xmcd
#
# Track frame offsets:
#	150
#	22005
#	39533
#	66651
#	104382
#	131273
#	150524
#	176550
#	197230
#	212281
#	230361
#	257775
#	284623
#
# Disc length: 4091 seconds
#
# Revision: 0
# Processed by: cddbd v1.5.1PL2 Copyright (c) Steve Scherf et al.
# Submitted via: dBpowerAMP V4.0
#
DISCID=ba0ff90d
DTITLE=Boney Fields and the Bone's Project - We play the Blues
DYEAR=2006
DGENRE=Blues
TTITLE0=Get up and stand out
TTITLE1=Don't call me local
TTITLE2=I wanna get funky
TTITLE3=Don't let it get you down
TTITLE4=We play the Blues
TTITLE5=Never fall on your face
TTITLE6=Girl insane
TTITLE7=Your good thing is about to run out
TTITLE8=Tough pill
TTITLE9=Ain't doing too bad
TTITLE10=I wanna know
TTITLE11=Revelation
TTITLE12=You gotta move
EXTD=
EXTT0=
EXTT1=
EXTT2=
EXTT3=
EXTT4=
EXTT5=
EXTT6=
EXTT7=
EXTT8=
EXTT9=
EXTT10=
EXTT11=
EXTT12=
PLAYORDER=
